<mxfile host="app.diagrams.net" agent="Mozilla/5.0 (Windows NT 10.0; Win64; x64) AppleWebKit/537.36 (KHTML, like Gecko) Chrome/130.0.0.0 Safari/537.36" version="24.8.4">
  <diagram name="Page-1" id="edf60f1a-56cd-e834-aa8a-f176f3a09ee4">
    <mxGraphModel dx="662" dy="382" grid="1" gridSize="10" guides="1" tooltips="1" connect="1" arrows="1" fold="1" page="1" pageScale="1" pageWidth="1100" pageHeight="850" background="#ffffff" math="0" shadow="0">
      <root>
        <mxCell id="0" />
        <mxCell id="1" parent="0" />
        <mxCell id="60e70716793133e9-2" value="Unauthorized User or Anyone coming to our&amp;nbsp;&lt;div&gt;site!&lt;div&gt;&lt;br&gt;&lt;/div&gt;&lt;div&gt;&lt;br&gt;&lt;/div&gt;&lt;/div&gt;" style="shape=trapezoid;whiteSpace=wrap;html=1;rounded=0;shadow=1;labelBackgroundColor=none;strokeWidth=1;fontFamily=Verdana;fontSize=8;align=center;flipV=1;fillColor=#fff2cc;strokeColor=#d6b656;" parent="1" vertex="1">
          <mxGeometry x="1050" y="60" width="120" height="60" as="geometry" />
        </mxCell>
        <mxCell id="60e70716793133e9-33" value="Yes" style="edgeStyle=orthogonalEdgeStyle;rounded=0;html=1;labelBackgroundColor=none;startSize=5;endArrow=classicThin;endFill=1;endSize=5;jettySize=auto;orthogonalLoop=1;strokeWidth=1;fontFamily=Verdana;fontSize=8" parent="1" source="60e70716793133e9-5" target="60e70716793133e9-7" edge="1">
          <mxGeometry x="-0.7778" y="10" relative="1" as="geometry">
            <mxPoint as="offset" />
          </mxGeometry>
        </mxCell>
        <mxCell id="60e70716793133e9-5" value="Logged in Customer" style="rhombus;whiteSpace=wrap;html=1;rounded=0;shadow=1;labelBackgroundColor=none;strokeWidth=1;fontFamily=Verdana;fontSize=8;align=center;" parent="1" vertex="1">
          <mxGeometry x="1310" y="1100" width="100" height="60" as="geometry" />
        </mxCell>
        <mxCell id="60e70716793133e9-34" value="Yes" style="edgeStyle=orthogonalEdgeStyle;rounded=0;html=1;labelBackgroundColor=none;startSize=5;endArrow=classicThin;endFill=1;endSize=5;jettySize=auto;orthogonalLoop=1;strokeWidth=1;fontFamily=Verdana;fontSize=8" parent="1" source="60e70716793133e9-7" target="60e70716793133e9-8" edge="1">
          <mxGeometry x="-0.6667" y="10" relative="1" as="geometry">
            <mxPoint as="offset" />
          </mxGeometry>
        </mxCell>
        <mxCell id="60e70716793133e9-7" value="Searching for Properties" style="rhombus;whiteSpace=wrap;html=1;rounded=0;shadow=1;labelBackgroundColor=none;strokeWidth=1;fontFamily=Verdana;fontSize=8;align=center;" parent="1" vertex="1">
          <mxGeometry x="1580" y="1145" width="120" height="75" as="geometry" />
        </mxCell>
        <mxCell id="60e70716793133e9-8" value="Properties View" style="rounded=1;whiteSpace=wrap;html=1;shadow=1;labelBackgroundColor=none;strokeWidth=1;fontFamily=Verdana;fontSize=8;align=center;" parent="1" vertex="1">
          <mxGeometry x="1790" y="1162.5" width="100" height="40" as="geometry" />
        </mxCell>
        <mxCell id="60e70716793133e9-10" value="Have a Reservation" style="whiteSpace=wrap;html=1;rounded=0;shadow=1;labelBackgroundColor=none;strokeWidth=1;fontFamily=Verdana;fontSize=8;align=center;" parent="1" vertex="1">
          <mxGeometry x="1748" y="1270" width="80" height="40" as="geometry" />
        </mxCell>
        <mxCell id="Z8Qo_mUcmgDimk4ZtV1X-5" value="Logged in as Admin" style="rhombus;whiteSpace=wrap;html=1;rounded=0;shadow=1;labelBackgroundColor=none;strokeWidth=1;fontFamily=Verdana;fontSize=8;align=center;" parent="1" vertex="1">
          <mxGeometry x="630" y="1275" width="100" height="60" as="geometry" />
        </mxCell>
        <mxCell id="Z8Qo_mUcmgDimk4ZtV1X-9" value="Yes" style="text;html=1;align=center;verticalAlign=middle;resizable=0;points=[];autosize=1;strokeColor=none;fillColor=none;" parent="1" vertex="1">
          <mxGeometry x="1850" y="1260" width="40" height="30" as="geometry" />
        </mxCell>
        <mxCell id="Z8Qo_mUcmgDimk4ZtV1X-17" value="Check on Reservation" style="whiteSpace=wrap;html=1;rounded=0;shadow=1;labelBackgroundColor=none;strokeWidth=1;fontFamily=Verdana;fontSize=8;align=center;" parent="1" vertex="1">
          <mxGeometry x="1600" y="1270" width="80" height="40" as="geometry" />
        </mxCell>
        <mxCell id="gYn13_rnFWAkC_ZhPSv--2" value="Logged in as Host" style="rhombus;whiteSpace=wrap;html=1;rounded=0;shadow=1;labelBackgroundColor=none;strokeWidth=1;fontFamily=Verdana;fontSize=8;align=center;" parent="1" vertex="1">
          <mxGeometry x="120" y="1177" width="100" height="60" as="geometry" />
        </mxCell>
        <mxCell id="gYn13_rnFWAkC_ZhPSv--5" value="View Pending Property Approvals?" style="whiteSpace=wrap;html=1;rounded=0;shadow=1;labelBackgroundColor=none;strokeWidth=1;fontFamily=Verdana;fontSize=8;align=center;" parent="1" vertex="1">
          <mxGeometry x="950" y="1357" width="110" height="30" as="geometry" />
        </mxCell>
        <mxCell id="gYn13_rnFWAkC_ZhPSv--6" value="View the Review Disputes" style="whiteSpace=wrap;html=1;rounded=0;shadow=1;labelBackgroundColor=none;strokeWidth=1;fontFamily=Verdana;fontSize=8;align=center;" parent="1" vertex="1">
          <mxGeometry x="785" y="1357" width="110" height="30" as="geometry" />
        </mxCell>
        <mxCell id="gYn13_rnFWAkC_ZhPSv--8" value="Unauthorized Home/Index" style="rounded=1;whiteSpace=wrap;html=1;shadow=1;labelBackgroundColor=none;strokeWidth=1;fontFamily=Verdana;fontSize=8;align=center;fillColor=#fff2cc;strokeColor=#d6b656;" parent="1" vertex="1">
          <mxGeometry x="1060" y="150" width="100" height="40" as="geometry" />
        </mxCell>
        <mxCell id="gYn13_rnFWAkC_ZhPSv--11" value="Yes" style="text;html=1;align=center;verticalAlign=middle;resizable=0;points=[];autosize=1;strokeColor=none;fillColor=none;" parent="1" vertex="1">
          <mxGeometry x="790" y="1275" width="40" height="30" as="geometry" />
        </mxCell>
        <mxCell id="gYn13_rnFWAkC_ZhPSv--12" value="" style="endArrow=classic;html=1;rounded=0;exitX=1;exitY=0.5;exitDx=0;exitDy=0;entryX=0;entryY=0.5;entryDx=0;entryDy=0;" parent="1" source="Z8Qo_mUcmgDimk4ZtV1X-5" target="gYn13_rnFWAkC_ZhPSv--13" edge="1">
          <mxGeometry width="50" height="50" relative="1" as="geometry">
            <mxPoint x="780" y="1297" as="sourcePoint" />
            <mxPoint x="850" y="1297" as="targetPoint" />
            <Array as="points" />
          </mxGeometry>
        </mxCell>
        <mxCell id="gYn13_rnFWAkC_ZhPSv--13" value="Admin Dashboard" style="rounded=1;whiteSpace=wrap;html=1;shadow=1;labelBackgroundColor=none;strokeWidth=1;fontFamily=Verdana;fontSize=8;align=center;" parent="1" vertex="1">
          <mxGeometry x="860" y="1285" width="100" height="40" as="geometry" />
        </mxCell>
        <mxCell id="gYn13_rnFWAkC_ZhPSv--15" value="" style="endArrow=classic;html=1;rounded=0;exitX=0.25;exitY=1;exitDx=0;exitDy=0;entryX=0.607;entryY=0.091;entryDx=0;entryDy=0;entryPerimeter=0;" parent="1" source="gYn13_rnFWAkC_ZhPSv--13" target="gYn13_rnFWAkC_ZhPSv--6" edge="1">
          <mxGeometry width="50" height="50" relative="1" as="geometry">
            <mxPoint x="920" y="1367" as="sourcePoint" />
            <mxPoint x="970" y="1317" as="targetPoint" />
          </mxGeometry>
        </mxCell>
        <mxCell id="gYn13_rnFWAkC_ZhPSv--17" value="" style="endArrow=classic;html=1;rounded=0;exitX=0.817;exitY=1.068;exitDx=0;exitDy=0;entryX=0.25;entryY=0;entryDx=0;entryDy=0;exitPerimeter=0;" parent="1" source="gYn13_rnFWAkC_ZhPSv--13" target="gYn13_rnFWAkC_ZhPSv--5" edge="1">
          <mxGeometry width="50" height="50" relative="1" as="geometry">
            <mxPoint x="933" y="1317" as="sourcePoint" />
            <mxPoint x="910" y="1360" as="targetPoint" />
          </mxGeometry>
        </mxCell>
        <mxCell id="gYn13_rnFWAkC_ZhPSv--18" value="" style="endArrow=classic;html=1;rounded=0;exitX=0.25;exitY=1;exitDx=0;exitDy=0;" parent="1" source="gYn13_rnFWAkC_ZhPSv--5" edge="1">
          <mxGeometry width="50" height="50" relative="1" as="geometry">
            <mxPoint x="870" y="1447" as="sourcePoint" />
            <mxPoint x="978" y="1427" as="targetPoint" />
          </mxGeometry>
        </mxCell>
        <mxCell id="gYn13_rnFWAkC_ZhPSv--19" value="Approve: Goes Live" style="whiteSpace=wrap;html=1;rounded=0;shadow=1;labelBackgroundColor=none;strokeWidth=1;fontFamily=Verdana;fontSize=8;align=center;" parent="1" vertex="1">
          <mxGeometry x="930" y="1427" width="110" height="30" as="geometry" />
        </mxCell>
        <mxCell id="gYn13_rnFWAkC_ZhPSv--20" value="" style="endArrow=classic;html=1;rounded=0;exitX=1;exitY=0.5;exitDx=0;exitDy=0;" parent="1" source="gYn13_rnFWAkC_ZhPSv--5" edge="1">
          <mxGeometry width="50" height="50" relative="1" as="geometry">
            <mxPoint x="988" y="1397" as="sourcePoint" />
            <mxPoint x="1110" y="1372" as="targetPoint" />
          </mxGeometry>
        </mxCell>
        <mxCell id="gYn13_rnFWAkC_ZhPSv--21" value="Deny: Send Feedback to Host" style="whiteSpace=wrap;html=1;rounded=0;shadow=1;labelBackgroundColor=none;strokeWidth=1;fontFamily=Verdana;fontSize=8;align=center;" parent="1" vertex="1">
          <mxGeometry x="1110" y="1357" width="110" height="30" as="geometry" />
        </mxCell>
        <mxCell id="gYn13_rnFWAkC_ZhPSv--23" value="" style="endArrow=classic;html=1;rounded=0;exitX=0.164;exitY=1.096;exitDx=0;exitDy=0;exitPerimeter=0;" parent="1" source="gYn13_rnFWAkC_ZhPSv--6" edge="1">
          <mxGeometry width="50" height="50" relative="1" as="geometry">
            <mxPoint x="790" y="1387" as="sourcePoint" />
            <mxPoint x="790" y="1427" as="targetPoint" />
          </mxGeometry>
        </mxCell>
        <mxCell id="gYn13_rnFWAkC_ZhPSv--24" value="Approve/Deny Unique Dispute" style="whiteSpace=wrap;html=1;rounded=0;shadow=1;labelBackgroundColor=none;strokeWidth=1;fontFamily=Verdana;fontSize=8;align=center;" parent="1" vertex="1">
          <mxGeometry x="730" y="1427" width="110" height="30" as="geometry" />
        </mxCell>
        <mxCell id="gYn13_rnFWAkC_ZhPSv--25" value="" style="endArrow=classic;html=1;rounded=0;entryX=0.25;entryY=0;entryDx=0;entryDy=0;exitX=0.322;exitY=0.871;exitDx=0;exitDy=0;exitPerimeter=0;" parent="1" source="gYn13_rnFWAkC_ZhPSv--2" target="gYn13_rnFWAkC_ZhPSv--26" edge="1">
          <mxGeometry width="50" height="50" relative="1" as="geometry">
            <mxPoint x="143" y="1217" as="sourcePoint" />
            <mxPoint x="120" y="1260" as="targetPoint" />
            <Array as="points">
              <mxPoint x="140" y="1237" />
              <mxPoint x="130" y="1247" />
            </Array>
          </mxGeometry>
        </mxCell>
        <mxCell id="gYn13_rnFWAkC_ZhPSv--26" value="Host Dashboard/ Index" style="whiteSpace=wrap;html=1;rounded=0;shadow=1;labelBackgroundColor=none;strokeWidth=1;fontFamily=Verdana;fontSize=8;align=center;" parent="1" vertex="1">
          <mxGeometry x="120" y="1267" width="110" height="30" as="geometry" />
        </mxCell>
        <mxCell id="gYn13_rnFWAkC_ZhPSv--27" value="Yes" style="text;html=1;align=center;verticalAlign=middle;resizable=0;points=[];autosize=1;strokeColor=none;fillColor=none;" parent="1" vertex="1">
          <mxGeometry x="100" y="1217" width="40" height="30" as="geometry" />
        </mxCell>
        <mxCell id="gYn13_rnFWAkC_ZhPSv--28" value="" style="endArrow=classic;html=1;rounded=0;exitX=1;exitY=0.5;exitDx=0;exitDy=0;" parent="1" source="gYn13_rnFWAkC_ZhPSv--26" edge="1">
          <mxGeometry width="50" height="50" relative="1" as="geometry">
            <mxPoint x="273" y="1260.5" as="sourcePoint" />
            <mxPoint x="280" y="1282" as="targetPoint" />
            <Array as="points">
              <mxPoint x="250" y="1282" />
            </Array>
          </mxGeometry>
        </mxCell>
        <mxCell id="gYn13_rnFWAkC_ZhPSv--29" value="Add new Property" style="whiteSpace=wrap;html=1;rounded=0;shadow=1;labelBackgroundColor=none;strokeWidth=1;fontFamily=Verdana;fontSize=8;align=center;" parent="1" vertex="1">
          <mxGeometry x="280" y="1267" width="110" height="30" as="geometry" />
        </mxCell>
        <mxCell id="gYn13_rnFWAkC_ZhPSv--31" value="" style="endArrow=classic;html=1;rounded=0;exitX=0.192;exitY=1.081;exitDx=0;exitDy=0;exitPerimeter=0;" parent="1" source="gYn13_rnFWAkC_ZhPSv--26" edge="1">
          <mxGeometry width="50" height="50" relative="1" as="geometry">
            <mxPoint x="145" y="1317" as="sourcePoint" />
            <mxPoint x="150" y="1357" as="targetPoint" />
            <Array as="points">
              <mxPoint x="150" y="1327" />
            </Array>
          </mxGeometry>
        </mxCell>
        <mxCell id="gYn13_rnFWAkC_ZhPSv--32" value="Create/Edit/Delete&amp;nbsp; Existing Properties" style="whiteSpace=wrap;html=1;rounded=0;shadow=1;labelBackgroundColor=none;strokeWidth=1;fontFamily=Verdana;fontSize=8;align=center;" parent="1" vertex="1">
          <mxGeometry x="110" y="1357" width="110" height="30" as="geometry" />
        </mxCell>
        <mxCell id="gYn13_rnFWAkC_ZhPSv--37" value="" style="endArrow=classic;html=1;rounded=0;exitX=0.31;exitY=1.018;exitDx=0;exitDy=0;exitPerimeter=0;entryX=0.5;entryY=0;entryDx=0;entryDy=0;" parent="1" source="gYn13_rnFWAkC_ZhPSv--32" target="gYn13_rnFWAkC_ZhPSv--38" edge="1">
          <mxGeometry width="50" height="50" relative="1" as="geometry">
            <mxPoint x="145" y="1397" as="sourcePoint" />
            <mxPoint x="140" y="1437" as="targetPoint" />
            <Array as="points" />
          </mxGeometry>
        </mxCell>
        <mxCell id="gYn13_rnFWAkC_ZhPSv--38" value="Cancel Reservation" style="whiteSpace=wrap;html=1;rounded=0;shadow=1;labelBackgroundColor=none;strokeWidth=1;fontFamily=Verdana;fontSize=8;align=center;" parent="1" vertex="1">
          <mxGeometry x="90" y="1439" width="110" height="30" as="geometry" />
        </mxCell>
        <mxCell id="gYn13_rnFWAkC_ZhPSv--40" value="" style="endArrow=classic;html=1;rounded=0;exitX=0.5;exitY=1;exitDx=0;exitDy=0;entryX=0.5;entryY=0;entryDx=0;entryDy=0;" parent="1" source="60e70716793133e9-2" target="gYn13_rnFWAkC_ZhPSv--8" edge="1">
          <mxGeometry width="50" height="50" relative="1" as="geometry">
            <mxPoint x="830" y="230" as="sourcePoint" />
            <mxPoint x="880" y="180" as="targetPoint" />
          </mxGeometry>
        </mxCell>
        <mxCell id="gYn13_rnFWAkC_ZhPSv--41" value="Login" style="rounded=1;whiteSpace=wrap;html=1;shadow=1;labelBackgroundColor=none;strokeWidth=1;fontFamily=Verdana;fontSize=8;align=center;fillColor=#fff2cc;strokeColor=#d6b656;" parent="1" vertex="1">
          <mxGeometry x="610" y="620" width="100" height="40" as="geometry" />
        </mxCell>
        <mxCell id="gYn13_rnFWAkC_ZhPSv--42" value="Search Properies" style="rounded=1;whiteSpace=wrap;html=1;shadow=1;labelBackgroundColor=none;strokeWidth=1;fontFamily=Verdana;fontSize=8;align=center;fillColor=#fff2cc;strokeColor=#d6b656;" parent="1" vertex="1">
          <mxGeometry x="1850" y="580" width="100" height="40" as="geometry" />
        </mxCell>
        <mxCell id="gYn13_rnFWAkC_ZhPSv--43" value="" style="endArrow=classic;html=1;rounded=0;entryX=0.25;entryY=0;entryDx=0;entryDy=0;exitX=0;exitY=1;exitDx=0;exitDy=0;" parent="1" source="gYn13_rnFWAkC_ZhPSv--106" target="gYn13_rnFWAkC_ZhPSv--44" edge="1">
          <mxGeometry width="50" height="50" relative="1" as="geometry">
            <mxPoint x="550" y="810" as="sourcePoint" />
            <mxPoint x="200" y="1090" as="targetPoint" />
          </mxGeometry>
        </mxCell>
        <mxCell id="gYn13_rnFWAkC_ZhPSv--111" value="&lt;font style=&quot;font-size: 19px;&quot;&gt;Yes&lt;/font&gt;" style="edgeLabel;html=1;align=center;verticalAlign=middle;resizable=0;points=[];" parent="gYn13_rnFWAkC_ZhPSv--43" vertex="1" connectable="0">
          <mxGeometry x="-0.8396" y="3" relative="1" as="geometry">
            <mxPoint as="offset" />
          </mxGeometry>
        </mxCell>
        <mxCell id="gYn13_rnFWAkC_ZhPSv--44" value="Host" style="rounded=1;whiteSpace=wrap;html=1;fillColor=#dae8fc;strokeColor=#6c8ebf;" parent="1" vertex="1">
          <mxGeometry x="160" y="1100" width="120" height="60" as="geometry" />
        </mxCell>
        <mxCell id="gYn13_rnFWAkC_ZhPSv--45" value="Admin" style="rounded=1;whiteSpace=wrap;html=1;fillColor=#d5e8d4;strokeColor=#82b366;" parent="1" vertex="1">
          <mxGeometry x="655" y="1125" width="120" height="60" as="geometry" />
        </mxCell>
        <mxCell id="gYn13_rnFWAkC_ZhPSv--46" value="Customer" style="rounded=1;whiteSpace=wrap;html=1;fillColor=#f8cecc;strokeColor=#b85450;" parent="1" vertex="1">
          <mxGeometry x="1110" y="1090" width="120" height="60" as="geometry" />
        </mxCell>
        <mxCell id="gYn13_rnFWAkC_ZhPSv--48" value="Register" style="rounded=1;whiteSpace=wrap;html=1;shadow=1;labelBackgroundColor=none;strokeWidth=1;fontFamily=Verdana;fontSize=8;align=center;fillColor=#fff2cc;strokeColor=#d6b656;" parent="1" vertex="1">
          <mxGeometry x="1170" y="570" width="100" height="40" as="geometry" />
        </mxCell>
        <mxCell id="gYn13_rnFWAkC_ZhPSv--49" value="" style="endArrow=classic;html=1;rounded=0;exitX=0.5;exitY=1;exitDx=0;exitDy=0;entryX=0.5;entryY=0;entryDx=0;entryDy=0;" parent="1" source="gYn13_rnFWAkC_ZhPSv--108" target="gYn13_rnFWAkC_ZhPSv--45" edge="1">
          <mxGeometry width="50" height="50" relative="1" as="geometry">
            <mxPoint x="650" y="870" as="sourcePoint" />
            <mxPoint x="260" y="1090" as="targetPoint" />
          </mxGeometry>
        </mxCell>
        <mxCell id="gYn13_rnFWAkC_ZhPSv--50" value="" style="endArrow=classic;html=1;rounded=0;exitX=0.968;exitY=0.979;exitDx=0;exitDy=0;entryX=0;entryY=0;entryDx=0;entryDy=0;exitPerimeter=0;" parent="1" source="gYn13_rnFWAkC_ZhPSv--106" edge="1">
          <mxGeometry width="50" height="50" relative="1" as="geometry">
            <mxPoint x="670" y="910" as="sourcePoint" />
            <mxPoint x="1120" y="1100" as="targetPoint" />
          </mxGeometry>
        </mxCell>
        <mxCell id="gYn13_rnFWAkC_ZhPSv--112" value="Yes" style="edgeLabel;html=1;align=center;verticalAlign=middle;resizable=0;points=[];rotation=4;arcSize=12;fontSize=15;" parent="gYn13_rnFWAkC_ZhPSv--50" vertex="1" connectable="0">
          <mxGeometry x="-0.7121" y="-2" relative="1" as="geometry">
            <mxPoint y="-1" as="offset" />
          </mxGeometry>
        </mxCell>
        <mxCell id="gYn13_rnFWAkC_ZhPSv--60" value="" style="endArrow=classic;html=1;rounded=0;exitX=0;exitY=1;exitDx=0;exitDy=0;entryX=0.5;entryY=0;entryDx=0;entryDy=0;" parent="1" source="gYn13_rnFWAkC_ZhPSv--8" target="gYn13_rnFWAkC_ZhPSv--41" edge="1">
          <mxGeometry width="50" height="50" relative="1" as="geometry">
            <mxPoint x="1050" y="720" as="sourcePoint" />
            <mxPoint x="600" y="760" as="targetPoint" />
          </mxGeometry>
        </mxCell>
        <mxCell id="gYn13_rnFWAkC_ZhPSv--61" value="" style="endArrow=classic;html=1;rounded=0;exitX=0.5;exitY=1;exitDx=0;exitDy=0;entryX=0.5;entryY=0;entryDx=0;entryDy=0;" parent="1" source="gYn13_rnFWAkC_ZhPSv--8" target="gYn13_rnFWAkC_ZhPSv--48" edge="1">
          <mxGeometry width="50" height="50" relative="1" as="geometry">
            <mxPoint x="1050" y="720" as="sourcePoint" />
            <mxPoint x="1100" y="670" as="targetPoint" />
          </mxGeometry>
        </mxCell>
        <mxCell id="gYn13_rnFWAkC_ZhPSv--62" value="" style="endArrow=classic;html=1;rounded=0;exitX=1;exitY=0.75;exitDx=0;exitDy=0;entryX=0;entryY=0;entryDx=0;entryDy=0;" parent="1" source="gYn13_rnFWAkC_ZhPSv--8" target="gYn13_rnFWAkC_ZhPSv--42" edge="1">
          <mxGeometry width="50" height="50" relative="1" as="geometry">
            <mxPoint x="1050" y="720" as="sourcePoint" />
            <mxPoint x="1100" y="670" as="targetPoint" />
          </mxGeometry>
        </mxCell>
        <mxCell id="gYn13_rnFWAkC_ZhPSv--63" value="" style="endArrow=classic;html=1;rounded=0;exitX=0.5;exitY=1;exitDx=0;exitDy=0;entryX=1;entryY=0;entryDx=0;entryDy=0;" parent="1" source="gYn13_rnFWAkC_ZhPSv--44" target="gYn13_rnFWAkC_ZhPSv--2" edge="1">
          <mxGeometry width="50" height="50" relative="1" as="geometry">
            <mxPoint x="220" y="1170" as="sourcePoint" />
            <mxPoint x="356.2" y="1217" as="targetPoint" />
          </mxGeometry>
        </mxCell>
        <mxCell id="gYn13_rnFWAkC_ZhPSv--64" value="" style="endArrow=classic;html=1;rounded=0;exitX=0.25;exitY=1;exitDx=0;exitDy=0;entryX=0.5;entryY=0;entryDx=0;entryDy=0;" parent="1" source="gYn13_rnFWAkC_ZhPSv--45" target="Z8Qo_mUcmgDimk4ZtV1X-5" edge="1">
          <mxGeometry width="50" height="50" relative="1" as="geometry">
            <mxPoint x="370" y="1280" as="sourcePoint" />
            <mxPoint x="420" y="1230" as="targetPoint" />
          </mxGeometry>
        </mxCell>
        <mxCell id="gYn13_rnFWAkC_ZhPSv--65" value="" style="endArrow=classic;html=1;rounded=0;exitX=1;exitY=0.5;exitDx=0;exitDy=0;entryX=0;entryY=0.5;entryDx=0;entryDy=0;" parent="1" source="gYn13_rnFWAkC_ZhPSv--46" target="60e70716793133e9-5" edge="1">
          <mxGeometry width="50" height="50" relative="1" as="geometry">
            <mxPoint x="1610" y="1220" as="sourcePoint" />
            <mxPoint x="1660" y="1170" as="targetPoint" />
          </mxGeometry>
        </mxCell>
        <mxCell id="gYn13_rnFWAkC_ZhPSv--66" value="" style="endArrow=classic;html=1;rounded=0;entryX=0;entryY=0.5;entryDx=0;entryDy=0;" parent="1" source="60e70716793133e9-5" target="Z8Qo_mUcmgDimk4ZtV1X-17" edge="1">
          <mxGeometry width="50" height="50" relative="1" as="geometry">
            <mxPoint x="1530" y="1240" as="sourcePoint" />
            <mxPoint x="1580" y="1190" as="targetPoint" />
          </mxGeometry>
        </mxCell>
        <mxCell id="gYn13_rnFWAkC_ZhPSv--67" value="" style="endArrow=classic;html=1;rounded=0;exitX=1;exitY=0.5;exitDx=0;exitDy=0;entryX=0;entryY=0.5;entryDx=0;entryDy=0;" parent="1" source="Z8Qo_mUcmgDimk4ZtV1X-17" target="60e70716793133e9-10" edge="1">
          <mxGeometry width="50" height="50" relative="1" as="geometry">
            <mxPoint x="1530" y="1240" as="sourcePoint" />
            <mxPoint x="1580" y="1190" as="targetPoint" />
          </mxGeometry>
        </mxCell>
        <mxCell id="gYn13_rnFWAkC_ZhPSv--68" value="Register View" style="ellipse;whiteSpace=wrap;html=1;aspect=fixed;fillColor=#fff2cc;strokeColor=#d6b656;" parent="1" vertex="1">
          <mxGeometry x="1180" y="740" width="80" height="80" as="geometry" />
        </mxCell>
        <mxCell id="gYn13_rnFWAkC_ZhPSv--69" value="" style="endArrow=classic;html=1;rounded=0;exitX=0.5;exitY=1;exitDx=0;exitDy=0;" parent="1" source="gYn13_rnFWAkC_ZhPSv--48" target="gYn13_rnFWAkC_ZhPSv--68" edge="1">
          <mxGeometry width="50" height="50" relative="1" as="geometry">
            <mxPoint x="1260" y="700" as="sourcePoint" />
            <mxPoint x="1310" y="650" as="targetPoint" />
          </mxGeometry>
        </mxCell>
        <mxCell id="gYn13_rnFWAkC_ZhPSv--70" value="Detailed Search" style="rounded=1;whiteSpace=wrap;html=1;shadow=1;labelBackgroundColor=none;strokeWidth=1;fontFamily=Verdana;fontSize=8;align=center;fillColor=#fff2cc;strokeColor=#d6b656;" parent="1" vertex="1">
          <mxGeometry x="1980" y="580" width="100" height="40" as="geometry" />
        </mxCell>
        <mxCell id="gYn13_rnFWAkC_ZhPSv--71" value="Reserve Property" style="rounded=1;whiteSpace=wrap;html=1;fillColor=#fff2cc;strokeColor=#d6b656;" parent="1" vertex="1">
          <mxGeometry x="1910" y="690" width="120" height="60" as="geometry" />
        </mxCell>
        <mxCell id="gYn13_rnFWAkC_ZhPSv--72" value="Reservations View" style="ellipse;whiteSpace=wrap;html=1;aspect=fixed;" parent="1" vertex="1">
          <mxGeometry x="1910" y="1250" width="80" height="80" as="geometry" />
        </mxCell>
        <mxCell id="gYn13_rnFWAkC_ZhPSv--73" value="" style="endArrow=classic;html=1;rounded=0;exitX=1;exitY=0.5;exitDx=0;exitDy=0;entryX=0;entryY=0.5;entryDx=0;entryDy=0;" parent="1" source="60e70716793133e9-10" target="gYn13_rnFWAkC_ZhPSv--72" edge="1">
          <mxGeometry width="50" height="50" relative="1" as="geometry">
            <mxPoint x="1650" y="1260" as="sourcePoint" />
            <mxPoint x="1760" y="1220" as="targetPoint" />
          </mxGeometry>
        </mxCell>
        <mxCell id="gYn13_rnFWAkC_ZhPSv--76" value="Click Reserve Property" style="rounded=1;whiteSpace=wrap;html=1;" parent="1" vertex="1">
          <mxGeometry x="1970" y="1145" width="110" height="40" as="geometry" />
        </mxCell>
        <mxCell id="gYn13_rnFWAkC_ZhPSv--78" value="" style="endArrow=classic;html=1;rounded=0;exitX=1;exitY=0.5;exitDx=0;exitDy=0;entryX=0;entryY=0.5;entryDx=0;entryDy=0;" parent="1" source="60e70716793133e9-8" target="gYn13_rnFWAkC_ZhPSv--76" edge="1">
          <mxGeometry width="50" height="50" relative="1" as="geometry">
            <mxPoint x="1930" y="1260" as="sourcePoint" />
            <mxPoint x="1980" y="1210" as="targetPoint" />
          </mxGeometry>
        </mxCell>
        <mxCell id="gYn13_rnFWAkC_ZhPSv--81" value="Added to cart" style="rounded=1;whiteSpace=wrap;html=1;" parent="1" vertex="1">
          <mxGeometry x="2160" y="1145" width="120" height="40" as="geometry" />
        </mxCell>
        <mxCell id="gYn13_rnFWAkC_ZhPSv--82" value="Yes" style="text;html=1;align=center;verticalAlign=middle;resizable=0;points=[];autosize=1;strokeColor=none;fillColor=none;" parent="1" vertex="1">
          <mxGeometry x="2100" y="1140" width="40" height="30" as="geometry" />
        </mxCell>
        <mxCell id="gYn13_rnFWAkC_ZhPSv--85" value="" style="endArrow=classic;html=1;rounded=0;exitX=1;exitY=0.5;exitDx=0;exitDy=0;entryX=0;entryY=0.5;entryDx=0;entryDy=0;" parent="1" source="gYn13_rnFWAkC_ZhPSv--76" target="gYn13_rnFWAkC_ZhPSv--81" edge="1">
          <mxGeometry width="50" height="50" relative="1" as="geometry">
            <mxPoint x="2160" y="1230" as="sourcePoint" />
            <mxPoint x="2210" y="1180" as="targetPoint" />
          </mxGeometry>
        </mxCell>
        <mxCell id="gYn13_rnFWAkC_ZhPSv--86" value="" style="endArrow=classic;html=1;rounded=0;exitX=0.5;exitY=1;exitDx=0;exitDy=0;entryX=0.5;entryY=0;entryDx=0;entryDy=0;" parent="1" source="gYn13_rnFWAkC_ZhPSv--81" target="gYn13_rnFWAkC_ZhPSv--87" edge="1">
          <mxGeometry width="50" height="50" relative="1" as="geometry">
            <mxPoint x="2320" y="1170" as="sourcePoint" />
            <mxPoint x="2340" y="1165" as="targetPoint" />
          </mxGeometry>
        </mxCell>
        <mxCell id="gYn13_rnFWAkC_ZhPSv--87" value="Checkout?" style="rounded=1;whiteSpace=wrap;html=1;" parent="1" vertex="1">
          <mxGeometry x="2160" y="1220" width="120" height="40" as="geometry" />
        </mxCell>
        <mxCell id="gYn13_rnFWAkC_ZhPSv--88" value="Checkout Payment View" style="rounded=1;whiteSpace=wrap;html=1;" parent="1" vertex="1">
          <mxGeometry x="2160" y="1297" width="120" height="40" as="geometry" />
        </mxCell>
        <mxCell id="gYn13_rnFWAkC_ZhPSv--89" value="No" style="text;html=1;align=center;verticalAlign=middle;resizable=0;points=[];autosize=1;strokeColor=none;fillColor=none;" parent="1" vertex="1">
          <mxGeometry x="2310" y="1218" width="40" height="30" as="geometry" />
        </mxCell>
        <mxCell id="gYn13_rnFWAkC_ZhPSv--90" value="Continue Shopping" style="rounded=1;whiteSpace=wrap;html=1;" parent="1" vertex="1">
          <mxGeometry x="2370" y="1220" width="120" height="40" as="geometry" />
        </mxCell>
        <mxCell id="gYn13_rnFWAkC_ZhPSv--91" value="Yes" style="text;html=1;align=center;verticalAlign=middle;resizable=0;points=[];autosize=1;strokeColor=none;fillColor=none;" parent="1" vertex="1">
          <mxGeometry x="2230" y="1260" width="40" height="30" as="geometry" />
        </mxCell>
        <mxCell id="gYn13_rnFWAkC_ZhPSv--92" value="Yes" style="text;html=1;align=center;verticalAlign=middle;resizable=0;points=[];autosize=1;strokeColor=none;fillColor=none;" parent="1" vertex="1">
          <mxGeometry x="2440" y="1258" width="40" height="30" as="geometry" />
        </mxCell>
        <mxCell id="gYn13_rnFWAkC_ZhPSv--93" value="Properties View" style="rounded=1;whiteSpace=wrap;html=1;" parent="1" vertex="1">
          <mxGeometry x="2370" y="1310" width="120" height="40" as="geometry" />
        </mxCell>
        <mxCell id="gYn13_rnFWAkC_ZhPSv--94" value="" style="endArrow=classic;html=1;rounded=0;exitX=0.5;exitY=1;exitDx=0;exitDy=0;entryX=0.5;entryY=0;entryDx=0;entryDy=0;" parent="1" source="gYn13_rnFWAkC_ZhPSv--90" target="gYn13_rnFWAkC_ZhPSv--93" edge="1">
          <mxGeometry width="50" height="50" relative="1" as="geometry">
            <mxPoint x="2330" y="1320" as="sourcePoint" />
            <mxPoint x="2380" y="1270" as="targetPoint" />
          </mxGeometry>
        </mxCell>
        <mxCell id="gYn13_rnFWAkC_ZhPSv--98" value="" style="endArrow=classic;html=1;rounded=0;exitX=1;exitY=0.5;exitDx=0;exitDy=0;entryX=0;entryY=0.5;entryDx=0;entryDy=0;" parent="1" source="gYn13_rnFWAkC_ZhPSv--87" target="gYn13_rnFWAkC_ZhPSv--90" edge="1">
          <mxGeometry width="50" height="50" relative="1" as="geometry">
            <mxPoint x="2300" y="1320" as="sourcePoint" />
            <mxPoint x="2350" y="1270" as="targetPoint" />
          </mxGeometry>
        </mxCell>
        <mxCell id="gYn13_rnFWAkC_ZhPSv--99" value="" style="endArrow=classic;html=1;rounded=0;exitX=0.5;exitY=1;exitDx=0;exitDy=0;entryX=0.5;entryY=0;entryDx=0;entryDy=0;" parent="1" source="gYn13_rnFWAkC_ZhPSv--87" target="gYn13_rnFWAkC_ZhPSv--88" edge="1">
          <mxGeometry width="50" height="50" relative="1" as="geometry">
            <mxPoint x="2300" y="1320" as="sourcePoint" />
            <mxPoint x="2350" y="1270" as="targetPoint" />
          </mxGeometry>
        </mxCell>
        <mxCell id="gYn13_rnFWAkC_ZhPSv--102" value="Confirmed/Thank you" style="rounded=1;whiteSpace=wrap;html=1;" parent="1" vertex="1">
          <mxGeometry x="2160" y="1370" width="120" height="40" as="geometry" />
        </mxCell>
        <mxCell id="gYn13_rnFWAkC_ZhPSv--103" value="" style="endArrow=classic;html=1;rounded=0;exitX=0.5;exitY=1;exitDx=0;exitDy=0;entryX=0.5;entryY=0;entryDx=0;entryDy=0;" parent="1" source="gYn13_rnFWAkC_ZhPSv--88" target="gYn13_rnFWAkC_ZhPSv--102" edge="1">
          <mxGeometry width="50" height="50" relative="1" as="geometry">
            <mxPoint x="2440" y="1270" as="sourcePoint" />
            <mxPoint x="2440" y="1320" as="targetPoint" />
          </mxGeometry>
        </mxCell>
        <mxCell id="gYn13_rnFWAkC_ZhPSv--104" value="Yes" style="text;html=1;align=center;verticalAlign=middle;resizable=0;points=[];autosize=1;strokeColor=none;fillColor=none;" parent="1" vertex="1">
          <mxGeometry x="2230" y="1346" width="40" height="30" as="geometry" />
        </mxCell>
        <mxCell id="gYn13_rnFWAkC_ZhPSv--105" value="" style="endArrow=classic;html=1;rounded=0;exitX=1;exitY=0.5;exitDx=0;exitDy=0;entryX=0;entryY=1;entryDx=0;entryDy=0;" parent="1" source="gYn13_rnFWAkC_ZhPSv--102" target="gYn13_rnFWAkC_ZhPSv--90" edge="1">
          <mxGeometry width="50" height="50" relative="1" as="geometry">
            <mxPoint x="2370" y="1370" as="sourcePoint" />
            <mxPoint x="2420" y="1320" as="targetPoint" />
          </mxGeometry>
        </mxCell>
        <mxCell id="gYn13_rnFWAkC_ZhPSv--106" value="SUCCESFUL User Login" style="rounded=1;whiteSpace=wrap;html=1;" parent="1" vertex="1">
          <mxGeometry x="660" y="935" width="120" height="60" as="geometry" />
        </mxCell>
        <mxCell id="gYn13_rnFWAkC_ZhPSv--107" value="" style="endArrow=classic;html=1;rounded=0;exitX=0.5;exitY=1;exitDx=0;exitDy=0;entryX=0.5;entryY=0;entryDx=0;entryDy=0;" parent="1" source="gYn13_rnFWAkC_ZhPSv--41" target="gYn13_rnFWAkC_ZhPSv--106" edge="1">
          <mxGeometry width="50" height="50" relative="1" as="geometry">
            <mxPoint x="770" y="980" as="sourcePoint" />
            <mxPoint x="820" y="930" as="targetPoint" />
          </mxGeometry>
        </mxCell>
        <mxCell id="gYn13_rnFWAkC_ZhPSv--109" value="" style="endArrow=classic;html=1;rounded=0;exitX=0.5;exitY=1;exitDx=0;exitDy=0;entryX=0.5;entryY=0;entryDx=0;entryDy=0;" parent="1" source="gYn13_rnFWAkC_ZhPSv--106" target="gYn13_rnFWAkC_ZhPSv--108" edge="1">
          <mxGeometry width="50" height="50" relative="1" as="geometry">
            <mxPoint x="600" y="900" as="sourcePoint" />
            <mxPoint x="660" y="1070" as="targetPoint" />
          </mxGeometry>
        </mxCell>
        <mxCell id="gYn13_rnFWAkC_ZhPSv--108" value="&lt;font style=&quot;font-size: 26px;&quot;&gt;Yes&lt;/font&gt;" style="text;html=1;align=center;verticalAlign=middle;resizable=0;points=[];autosize=1;strokeColor=none;fillColor=none;" parent="1" vertex="1">
          <mxGeometry x="680" y="1030" width="70" height="40" as="geometry" />
        </mxCell>
        <mxCell id="gYn13_rnFWAkC_ZhPSv--114" value="" style="endArrow=classic;html=1;rounded=0;entryX=0;entryY=0.5;entryDx=0;entryDy=0;exitX=0.504;exitY=0.047;exitDx=0;exitDy=0;exitPerimeter=0;" parent="1" source="gYn13_rnFWAkC_ZhPSv--113" target="gYn13_rnFWAkC_ZhPSv--48" edge="1">
          <mxGeometry width="50" height="50" relative="1" as="geometry">
            <mxPoint x="750" y="830" as="sourcePoint" />
            <mxPoint x="770" y="850" as="targetPoint" />
            <Array as="points" />
          </mxGeometry>
        </mxCell>
        <mxCell id="gYn13_rnFWAkC_ZhPSv--115" value="" style="endArrow=classic;html=1;rounded=0;exitX=1;exitY=0.25;exitDx=0;exitDy=0;entryX=0;entryY=0.5;entryDx=0;entryDy=0;" parent="1" source="gYn13_rnFWAkC_ZhPSv--106" target="gYn13_rnFWAkC_ZhPSv--113" edge="1">
          <mxGeometry width="50" height="50" relative="1" as="geometry">
            <mxPoint x="660" y="855" as="sourcePoint" />
            <mxPoint x="1170" y="590" as="targetPoint" />
          </mxGeometry>
        </mxCell>
        <mxCell id="gYn13_rnFWAkC_ZhPSv--113" value="&lt;font style=&quot;font-size: 19px;&quot;&gt;No&lt;/font&gt;" style="text;html=1;align=center;verticalAlign=middle;resizable=0;points=[];autosize=1;strokeColor=none;fillColor=none;strokeWidth=3;" parent="1" vertex="1">
          <mxGeometry x="850" y="820" width="50" height="40" as="geometry" />
        </mxCell>
        <mxCell id="gYn13_rnFWAkC_ZhPSv--116" value="" style="endArrow=classic;html=1;rounded=0;exitX=0.5;exitY=1;exitDx=0;exitDy=0;entryX=0.067;entryY=-0.002;entryDx=0;entryDy=0;entryPerimeter=0;" parent="1" source="gYn13_rnFWAkC_ZhPSv--42" target="gYn13_rnFWAkC_ZhPSv--71" edge="1">
          <mxGeometry width="50" height="50" relative="1" as="geometry">
            <mxPoint x="1920" y="750" as="sourcePoint" />
            <mxPoint x="1960" y="690" as="targetPoint" />
          </mxGeometry>
        </mxCell>
        <mxCell id="gYn13_rnFWAkC_ZhPSv--117" value="" style="endArrow=classic;html=1;rounded=0;exitX=0.6;exitY=1;exitDx=0;exitDy=0;exitPerimeter=0;entryX=0.82;entryY=0.035;entryDx=0;entryDy=0;entryPerimeter=0;" parent="1" source="gYn13_rnFWAkC_ZhPSv--70" target="gYn13_rnFWAkC_ZhPSv--71" edge="1">
          <mxGeometry width="50" height="50" relative="1" as="geometry">
            <mxPoint x="1920" y="750" as="sourcePoint" />
            <mxPoint x="1970" y="700" as="targetPoint" />
          </mxGeometry>
        </mxCell>
        <mxCell id="gYn13_rnFWAkC_ZhPSv--121" value="" style="endArrow=classic;html=1;rounded=0;exitX=1;exitY=0;exitDx=0;exitDy=0;entryX=0;entryY=0.75;entryDx=0;entryDy=0;" parent="1" source="gYn13_rnFWAkC_ZhPSv--72" target="gYn13_rnFWAkC_ZhPSv--81" edge="1">
          <mxGeometry width="50" height="50" relative="1" as="geometry">
            <mxPoint x="1870" y="1250" as="sourcePoint" />
            <mxPoint x="1920" y="1200" as="targetPoint" />
          </mxGeometry>
        </mxCell>
        <mxCell id="gYn13_rnFWAkC_ZhPSv--122" value="No" style="text;html=1;align=center;verticalAlign=middle;resizable=0;points=[];autosize=1;strokeColor=none;fillColor=none;" parent="1" vertex="1">
          <mxGeometry x="1750" y="1318" width="40" height="30" as="geometry" />
        </mxCell>
        <mxCell id="gYn13_rnFWAkC_ZhPSv--123" value="Properties View" style="rounded=1;whiteSpace=wrap;html=1;shadow=1;labelBackgroundColor=none;strokeWidth=1;fontFamily=Verdana;fontSize=8;align=center;" parent="1" vertex="1">
          <mxGeometry x="1738" y="1352" width="100" height="40" as="geometry" />
        </mxCell>
        <mxCell id="gYn13_rnFWAkC_ZhPSv--124" value="" style="endArrow=classic;html=1;rounded=0;exitX=0.5;exitY=1;exitDx=0;exitDy=0;" parent="1" source="60e70716793133e9-10" target="gYn13_rnFWAkC_ZhPSv--123" edge="1">
          <mxGeometry width="50" height="50" relative="1" as="geometry">
            <mxPoint x="1800" y="1310" as="sourcePoint" />
            <mxPoint x="1850" y="1260" as="targetPoint" />
          </mxGeometry>
        </mxCell>
        <mxCell id="gYn13_rnFWAkC_ZhPSv--125" value="Yes" style="text;html=1;align=center;verticalAlign=middle;resizable=0;points=[];autosize=1;strokeColor=none;fillColor=none;" parent="1" vertex="1">
          <mxGeometry x="1690" y="1268" width="40" height="30" as="geometry" />
        </mxCell>
        <mxCell id="gYn13_rnFWAkC_ZhPSv--126" value="" style="endArrow=classic;html=1;rounded=0;exitX=0.5;exitY=1;exitDx=0;exitDy=0;entryX=1;entryY=0.75;entryDx=0;entryDy=0;" parent="1" source="gYn13_rnFWAkC_ZhPSv--68" target="gYn13_rnFWAkC_ZhPSv--106" edge="1">
          <mxGeometry width="50" height="50" relative="1" as="geometry">
            <mxPoint x="810" y="1010" as="sourcePoint" />
            <mxPoint x="860" y="960" as="targetPoint" />
          </mxGeometry>
        </mxCell>
        <mxCell id="gYn13_rnFWAkC_ZhPSv--136" value="&lt;font style=&quot;font-size: 28px;&quot;&gt;Unauthorized User&lt;/font&gt;" style="rounded=0;whiteSpace=wrap;html=1;fillColor=#fff2cc;strokeColor=#d6b656;" parent="1" vertex="1">
          <mxGeometry x="2490" y="80" width="290" height="80" as="geometry" />
        </mxCell>
        <mxCell id="gYn13_rnFWAkC_ZhPSv--137" value="&lt;font style=&quot;font-size: 28px;&quot;&gt;Customer User&lt;/font&gt;" style="rounded=0;whiteSpace=wrap;html=1;fillColor=#f8cecc;strokeColor=#b85450;" parent="1" vertex="1">
          <mxGeometry x="2490" y="200" width="290" height="60" as="geometry" />
        </mxCell>
        <mxCell id="gYn13_rnFWAkC_ZhPSv--138" value="&lt;span style=&quot;font-size: 28px;&quot;&gt;Admin User&lt;/span&gt;" style="rounded=0;whiteSpace=wrap;html=1;fillColor=#d5e8d4;strokeColor=#82b366;" parent="1" vertex="1">
          <mxGeometry x="2480" y="330" width="320" height="55" as="geometry" />
        </mxCell>
        <mxCell id="gYn13_rnFWAkC_ZhPSv--139" value="&lt;span style=&quot;font-size: 28px;&quot;&gt;Host&lt;/span&gt;" style="rounded=0;whiteSpace=wrap;html=1;fillColor=#dae8fc;strokeColor=#6c8ebf;" parent="1" vertex="1">
          <mxGeometry x="2480" y="425" width="320" height="60" as="geometry" />
        </mxCell>
        <mxCell id="fRhte83UtmDvdU7O5lQr-1" value="Yes" style="text;html=1;align=center;verticalAlign=middle;resizable=0;points=[];autosize=1;strokeColor=none;fillColor=none;" vertex="1" parent="1">
          <mxGeometry x="1510" y="1207" width="40" height="30" as="geometry" />
        </mxCell>
        <mxCell id="fRhte83UtmDvdU7O5lQr-2" value="" style="endArrow=classic;html=1;rounded=0;exitX=1;exitY=1;exitDx=0;exitDy=0;entryX=0.25;entryY=0;entryDx=0;entryDy=0;" edge="1" parent="1" source="gYn13_rnFWAkC_ZhPSv--26" target="fRhte83UtmDvdU7O5lQr-3">
          <mxGeometry width="50" height="50" relative="1" as="geometry">
            <mxPoint x="240" y="1325" as="sourcePoint" />
            <mxPoint x="310" y="1360" as="targetPoint" />
            <Array as="points">
              <mxPoint x="260" y="1325" />
            </Array>
          </mxGeometry>
        </mxCell>
        <mxCell id="fRhte83UtmDvdU7O5lQr-3" value="Create Disputes" style="whiteSpace=wrap;html=1;rounded=0;shadow=1;labelBackgroundColor=none;strokeWidth=1;fontFamily=Verdana;fontSize=8;align=center;" vertex="1" parent="1">
          <mxGeometry x="300" y="1362" width="110" height="30" as="geometry" />
        </mxCell>
      </root>
    </mxGraphModel>
  </diagram>
</mxfile>
